<?xml version="1.0" encoding="UTF-8"?>
<!DOCTYPE svg PUBLIC "-//W3C//DTD SVG 1.1//EN" "http://www.w3.org/Graphics/SVG/1.1/DTD/svg11.dtd">
<!-- Creator: CorelDRAW X7 -->
<svg xmlns="http://www.w3.org/2000/svg" xml:space="preserve" width="297mm" height="210mm" version="1.1" style="shape-rendering:geometricPrecision; text-rendering:geometricPrecision; image-rendering:optimizeQuality; fill-rule:evenodd; clip-rule:evenodd"
viewBox="0 0 29700 21000"
 xmlns:xlink="http://www.w3.org/1999/xlink"
 enable-background="new 0 0 1140 360">
 <defs>
  <style type="text/css">
   <![CDATA[
    .str0 {stroke:#0C6342;stroke-width:7.62}
    .fil0 {fill:#FEFEFE}
    .fil4 {fill:#0A6242}
    .fil2 {fill:#0C6342}
    .fil5 {fill:#82AF9E}
    .fil3 {fill:#FCBA2E}
    .fil1 {fill:white}
    .fil6 {fill:#0C6342;fill-rule:nonzero}
   ]]>
  </style>
 </defs>
 <g id="Camada_x0020_1">
  <metadata id="CorelCorpID_0Corel-Layer"/>
  <g id="_2132539247792">
   <polygon class="fil0" points="-128,4916 29572,4916 29572,14295 -128,14295 -128,4916 "/>
   <path class="fil1" d="M7593 7090c0,19 -6,34 -19,46 -13,12 -28,18 -45,18 -18,0 -34,-6 -46,-17 -13,-12 -19,-28 -19,-47 0,-17 6,-32 19,-45 12,-12 27,-19 46,-19 18,0 33,7 46,19 12,12 18,28 18,45l0 0zm4619 0c0,19 -6,34 -19,46 -13,12 -28,18 -46,18 -18,0 -33,-6 -45,-17 -13,-12 -19,-28 -19,-47 0,-17 6,-32 18,-45 13,-12 28,-19 46,-19 19,0 34,7 47,19 12,12 18,28 18,45l0 0zm-4814 -44l-318 861 -111 0 -313 -861 113 0 256 735 3 0 262 -735 108 0zm178 861l-99 0 0 -615 99 0 0 615 0 0zm499 -165c0,54 -20,97 -61,130 -41,33 -96,50 -164,50 -58,0 -109,-12 -152,-37l0 -106c48,39 101,59 159,59 78,0 117,-29 117,-86 0,-23 -7,-42 -22,-57 -16,-14 -50,-34 -104,-59 -55,-23 -93,-48 -116,-75 -22,-26 -33,-62 -33,-106 0,-50 20,-93 61,-127 41,-34 93,-51 156,-51 48,0 92,10 131,29l0 99c-40,-29 -86,-44 -139,-44 -33,0 -59,8 -79,24 -19,16 -29,37 -29,62 0,27 7,48 22,63 16,14 47,32 95,52 58,24 99,50 123,78 23,27 35,61 35,102l0 0zm601 165l-99 0 0 -97 -2 0c-41,75 -104,112 -189,112 -147,0 -221,-87 -221,-262l0 -368 99 0 0 352c0,129 49,194 149,194 48,0 88,-18 118,-53 31,-36 46,-82 46,-139l0 -354 99 0 0 615 0 0zm591 0l-98 0 0 -96 -3 0c-42,74 -105,111 -189,111 -59,0 -106,-16 -142,-48 -36,-33 -53,-76 -53,-130 0,-115 67,-182 203,-201l184 -26c0,-104 -42,-156 -127,-156 -74,0 -141,25 -200,75l0 -101c18,-13 49,-26 92,-39 44,-13 83,-19 117,-19 144,0 216,77 216,230l0 400 0 0zm-98 -311l-149 21c-51,7 -87,19 -107,36 -20,17 -31,45 -31,83 0,31 11,55 33,74 22,19 51,28 85,28 49,0 89,-17 121,-52 32,-34 48,-77 48,-129l0 -61 0 0zm342 311l-99 0 0 -910 99 0 0 910zm778 -217c0,72 -25,129 -77,170 -51,41 -121,62 -209,62 -32,0 -68,-5 -108,-16 -40,-11 -69,-22 -86,-33l0 -120c25,22 57,41 97,55 40,15 77,23 111,23 111,0 166,-43 166,-129 0,-36 -12,-67 -35,-93 -24,-26 -73,-60 -146,-102 -71,-40 -120,-78 -149,-114 -28,-36 -42,-80 -42,-132 0,-68 25,-123 76,-166 51,-42 116,-64 197,-64 77,0 134,11 169,31l0 113c-45,-35 -103,-53 -175,-53 -47,0 -86,12 -116,36 -31,24 -46,55 -46,94 0,29 5,52 14,69 9,17 24,34 46,51 21,17 57,39 108,68 76,42 129,82 160,120 30,38 45,81 45,130l0 0zm395 211c-24,13 -54,20 -92,20 -108,0 -161,-61 -161,-182l0 -363 -106 0 0 -84 106 0 0 -150 98 -32 0 182 155 0 0 84 -155 0 0 347c0,41 7,70 21,88 14,17 38,26 70,26 25,0 46,-7 64,-20l0 84 0 0zm594 6l-99 0 0 -97 -2 0c-41,75 -104,112 -189,112 -147,0 -221,-87 -221,-262l0 -368 99 0 0 352c0,129 50,194 149,194 49,0 88,-18 119,-53 30,-36 45,-82 45,-139l0 -354 99 0 0 615 0 0zm674 0l-99 0 0 -105 -2 0c-46,80 -116,120 -211,120 -78,0 -140,-28 -186,-84 -46,-56 -69,-130 -69,-223 0,-102 25,-184 77,-245 51,-62 119,-93 205,-93 84,0 145,33 184,100l2 0 0 -380 99 0 0 910zm-99 -278l0 -91c0,-51 -17,-93 -50,-126 -34,-34 -75,-51 -124,-51 -59,0 -106,22 -141,66 -35,44 -52,104 -52,182 0,71 16,126 49,167 33,41 77,62 133,62 54,0 98,-20 133,-59 35,-39 52,-89 52,-150zm346 278l-98 0 0 -615 98 0 0 615 0 0zm718 -310c0,98 -28,176 -83,236 -56,59 -130,89 -224,89 -90,0 -163,-29 -217,-87 -54,-58 -82,-134 -82,-228 0,-102 28,-182 84,-241 56,-59 132,-89 230,-89 91,0 163,29 214,86 52,57 78,135 78,234l0 0zm-101 4c0,-78 -17,-137 -51,-178 -35,-41 -84,-62 -147,-62 -64,0 -114,21 -150,63 -37,43 -56,102 -56,179 0,74 19,131 56,173 37,41 87,62 150,62 64,0 113,-21 147,-61 34,-41 51,-100 51,-176l0 0zm-6951 -842l-570 569 -363 -282 -144 72 0 717 144 72 363 -283 570 570 359 -143 0 -1149 -359 -143 0 0zm-933 933l0 -431 215 215 -215 216zm553 -216l380 -295 0 590 -380 -295z"/>
   <path class="fil2" d="M14230 11074c-28,-93 56,-74 -242,-68 -103,2 -201,-1 -305,5 -146,281 -445,515 -785,465 -282,-41 -584,-290 -937,-347 -733,-117 -1152,485 -1766,750 -631,272 -1389,305 -1845,-281 -429,-552 -464,-1395 -462,-2067 3,-650 92,-1449 578,-1922 522,-507 1324,-397 1916,-69 617,341 992,869 1798,606 423,-139 1118,-744 1596,382l516 -1c-41,-373 -337,-802 -646,-984 -460,-270 -811,-241 -1283,-29 -873,392 -781,132 -1668,-378 -133,-76 -496,-210 -568,-282 -394,4 -997,-329 -1793,199 -448,297 -729,878 -842,1396 -224,1019 -202,2863 594,3626 474,455 990,557 1646,466 663,-93 1003,-383 1524,-719 794,-511 954,131 1672,168 265,14 653,-106 849,-281 331,-294 366,-543 453,-635z"/>
   <path class="fil2" d="M19165 9711c-21,-115 15,-367 59,-481 61,-161 239,-122 391,-121 246,0 925,-55 978,77 20,51 -39,383 -62,445 -61,158 -228,131 -371,131 -218,-1 -846,51 -995,-51zm-263 -1056c-203,297 -224,743 -291,1114 -73,405 -158,819 -217,1224l495 -1 142 -703c169,-70 1198,-20 1462,-19 584,2 510,-403 599,-897 123,-690 247,-771 -509,-771 -511,0 -1032,-10 -1542,2l-139 51z"/>
   <path class="fil2" d="M13418 8601c-614,10 -1235,1 -1851,1 -915,0 -897,-130 -1061,774 -46,254 -334,1401 -186,1553 117,120 1538,66 1806,71l268 -513c-1872,8 -1613,199 -1424,-858 62,-351 -7,-523 385,-521 559,3 1268,37 1808,-7l255 -500z"/>
   <path class="fil2" d="M13940 9404l155 729 -577 2 422 -731zm347 1558c137,79 413,35 580,30 -54,-347 -422,-1733 -389,-1934 -79,-117 -80,-308 -133,-455l-574 -4 -1296 2395 577 -7 210 -345 946 8 79 312z"/>
   <path class="fil3" d="M16006 9283l273 900 41 -91 101 -489 68 245 129 499c108,165 140,446 209,642l129 4 456 -697c34,-105 373,-636 448,-703l-245 1400 427 -1 439 -2317 -467 9 -423 627 -564 859 -9 -86c-62,-82 -62,-112 -69,-224l-145 -488 -205 -698 -472 1c-14,152 -50,505 -121,608z"/>
   <path class="fil2" d="M15278 9069c24,290 -260,1525 -321,1919 571,11 416,105 549,-636 35,-196 112,-513 113,-698l40 -62 23 65 164 600 211 732 111 5 450 -647 -129 -499 -169 244 -41 91 -273 -900 -170 -609 -456 12c-46,116 -34,292 -102,383z"/>
   <path class="fil2" d="M16804 9372l145 488c68,-91 49,-114 134,-183l-65 407 9 86 564 -859 112 -635 -451 5 -448 691z"/>
   <polygon class="fil3" points="16057,10989 15846,10257 15718,10994 "/>
   <polygon class="fil4" points="16956,10993 17293,10994 17412,10296 "/>
   <polygon class="fil5" points="15619,9654 15682,9657 15659,9592 "/>
   <path class="fil6 str0" d="M14456 11556c-42,0 -76,-13 -100,-39 -24,-27 -36,-63 -36,-109 0,-41 8,-77 24,-108 16,-32 39,-57 69,-76 30,-18 63,-28 100,-28 33,0 64,8 93,24l-5 26c-25,-18 -55,-28 -92,-28 -31,0 -59,8 -84,24 -26,16 -45,39 -59,67 -14,29 -21,61 -21,95 0,42 10,74 30,97 21,22 49,34 85,34 33,0 64,-9 93,-25l-6 27c-16,7 -31,12 -43,15 -13,3 -28,4 -46,4l-2 0zm185 -101c0,25 6,45 19,59 13,15 32,22 55,22 21,0 44,-7 68,-20l-4 23c-21,12 -44,17 -67,17 -30,0 -53,-9 -70,-27 -16,-18 -25,-44 -25,-76 0,-29 6,-56 19,-80 12,-24 28,-43 48,-56 20,-14 42,-21 65,-21 21,0 38,5 51,16 13,11 20,25 20,44 0,28 -14,49 -42,62 -29,13 -74,21 -137,22l0 15zm3 -36c52,0 90,-5 115,-14 25,-10 37,-25 37,-47 0,-28 -17,-42 -51,-42 -24,0 -45,10 -64,29 -18,19 -31,44 -37,74zm249 -117l22 0 -12 71 1 0c32,-52 66,-77 104,-77 21,0 37,5 47,16 10,11 15,28 15,51 0,5 -1,11 -2,19 -2,8 -13,64 -35,168l-22 0 29 -142c4,-22 6,-36 6,-42 0,-33 -14,-50 -42,-50 -13,0 -27,6 -44,17 -16,12 -31,26 -44,44 -12,19 -21,38 -25,58l-25 115 -23 0 39 -179c5,-27 9,-51 11,-69zm274 20l-46 0 5 -20 45 0 14 -65 24 -7 -16 72 67 0 -5 20 -66 0 -33 156c-3,16 -5,27 -5,33 0,8 2,14 5,18 3,4 9,6 17,6 7,0 20,-4 39,-13l-5 22c-6,3 -13,6 -21,8 -8,2 -14,3 -18,3 -26,0 -40,-14 -40,-42 0,-10 2,-22 5,-36l34 -155zm141 -20l23 0 -9 59 1 0c11,-22 22,-39 35,-49 12,-11 27,-16 43,-16 10,0 19,2 27,6l-4 23 -1 0c-9,-6 -17,-9 -26,-9 -18,0 -36,12 -54,35 -17,23 -30,53 -38,89l-23 110 -22 0 34 -161c8,-35 13,-64 14,-87zm206 254c-27,0 -48,-8 -64,-25 -15,-17 -23,-41 -23,-71 0,-30 6,-58 18,-83 12,-26 28,-46 48,-60 20,-14 42,-21 66,-21 27,0 48,8 64,26 15,17 22,40 22,69 0,31 -6,59 -17,84 -11,26 -27,46 -47,60 -20,14 -42,21 -67,21zm2 -20c20,0 37,-6 53,-18 17,-12 29,-30 39,-52 9,-21 14,-46 14,-72 0,-26 -6,-45 -17,-58 -12,-13 -28,-20 -49,-20 -19,0 -36,6 -53,19 -16,12 -29,29 -38,51 -10,22 -14,46 -14,72 0,25 5,44 17,58 12,13 28,20 48,20zm465 14c1,-19 4,-45 10,-79l-1 0c-15,29 -31,50 -47,64 -16,14 -34,21 -53,21 -22,0 -39,-7 -51,-23 -11,-15 -17,-37 -17,-66 0,-32 6,-61 20,-88 13,-26 31,-47 54,-61 23,-15 48,-22 75,-22 15,0 33,3 54,8l26 -122 22 0 -61 290c-1,5 -3,18 -5,37 -2,20 -3,33 -3,41l-23 0zm40 -225c-17,-6 -35,-9 -52,-9 -23,0 -44,7 -63,19 -19,13 -34,30 -45,53 -11,22 -16,48 -16,76 0,24 4,43 12,54 8,12 21,18 38,18 13,0 27,-7 43,-20 16,-14 30,-32 42,-54 13,-22 22,-45 27,-69l14 -68zm84 130c0,25 6,45 19,59 14,15 32,22 55,22 21,0 44,-7 69,-20l-5 23c-21,12 -43,17 -67,17 -30,0 -53,-9 -70,-27 -16,-18 -24,-44 -24,-76 0,-29 6,-56 18,-80 12,-24 28,-43 48,-56 21,-14 42,-21 65,-21 21,0 38,5 51,16 13,11 20,25 20,44 0,28 -14,49 -42,62 -28,13 -74,21 -137,22l0 15zm4 -36c51,0 90,-5 114,-14 25,-10 38,-25 38,-47 0,-28 -18,-42 -52,-42 -24,0 -45,10 -64,29 -18,19 -30,44 -36,74zm503 -217l22 0 57 348 -24 0 -18 -108 -149 0 -65 108 -25 0 202 -348zm34 218l-25 -161c-1,-8 -2,-17 -2,-26l-1 0 -8 16 -98 171 134 0zm136 -118l22 0c0,12 -2,26 -4,44 -3,17 -5,29 -6,35l1 0c15,-28 31,-49 47,-63 17,-15 35,-22 54,-22 22,0 39,7 50,23 12,15 17,37 17,66 0,32 -6,61 -19,88 -14,26 -32,46 -55,61 -23,15 -48,22 -76,22 -17,0 -35,-3 -52,-10l-26 121 -22 0 61 -287c1,-6 2,-18 5,-37 2,-19 3,-33 3,-41zm-17 224c15,7 32,10 52,10 22,0 43,-6 62,-19 19,-13 34,-31 45,-53 11,-23 16,-48 16,-75 0,-24 -4,-42 -12,-54 -8,-13 -21,-19 -38,-19 -13,0 -27,7 -43,20 -16,14 -30,32 -42,54 -13,22 -21,45 -26,69l-14 67zm282 -224l22 0 -9 59 1 0c11,-22 23,-39 35,-49 12,-11 27,-16 43,-16 10,0 19,2 27,6l-4 23 -1 0c-9,-6 -17,-9 -26,-9 -18,0 -36,12 -53,35 -18,23 -31,53 -38,89l-24 110 -22 0 34 -161c8,-35 13,-64 15,-87zm142 153c0,25 6,45 19,59 13,15 32,22 55,22 21,0 44,-7 69,-20l-5 23c-21,12 -44,17 -67,17 -30,0 -53,-9 -70,-27 -16,-18 -25,-44 -25,-76 0,-29 6,-56 19,-80 12,-24 28,-43 48,-56 20,-14 42,-21 65,-21 21,0 38,5 51,16 13,11 20,25 20,44 0,28 -14,49 -42,62 -28,13 -74,21 -137,22l0 15zm3 -36c52,0 90,-5 115,-14 25,-10 37,-25 37,-47 0,-28 -17,-42 -51,-42 -24,0 -45,10 -64,29 -18,19 -31,44 -37,74zm249 -117l22 0 -12 71 1 0c32,-52 66,-77 104,-77 21,0 37,5 47,16 10,11 15,28 15,51 0,5 -1,11 -2,19 -1,8 -13,64 -35,168l-22 0 29 -142c4,-22 6,-36 6,-42 0,-33 -14,-50 -42,-50 -13,0 -27,6 -44,17 -16,12 -31,26 -44,44 -12,19 -21,38 -25,58l-25 115 -22 0 38 -179c6,-27 9,-51 11,-69zm384 248c1,-19 4,-45 10,-79l-1 0c-15,29 -31,50 -47,64 -16,14 -34,21 -53,21 -22,0 -39,-7 -51,-23 -11,-15 -17,-37 -17,-66 0,-32 6,-61 20,-88 13,-26 31,-47 54,-61 23,-15 48,-22 75,-22 15,0 33,3 54,8l26 -122 22 0 -61 290c-1,5 -3,18 -5,37 -2,20 -3,33 -3,41l-23 0zm40 -225c-17,-6 -35,-9 -52,-9 -23,0 -44,7 -63,19 -19,13 -34,30 -45,53 -11,22 -16,48 -16,76 0,24 4,43 12,54 8,12 21,18 38,18 13,0 27,-7 43,-20 16,-14 30,-32 42,-54 13,-22 22,-45 27,-69l14 -68zm105 -23l22 0 -37 176c-4,20 -6,34 -6,42 0,10 5,15 15,15 7,0 14,-1 21,-4l-4 19c-8,4 -16,5 -24,5 -21,0 -31,-11 -31,-33 0,-7 1,-15 2,-22 2,-8 15,-74 42,-198zm28 -63c-5,0 -9,-2 -13,-5 -3,-4 -5,-8 -5,-14 0,-5 2,-9 5,-13 4,-3 8,-5 13,-5 5,0 10,2 13,5 4,3 6,8 6,13 0,5 -2,10 -5,14 -4,3 -9,5 -14,5zm212 83l-153 0 5 -20 191 0 -2 8 -213 220 161 0 -5 20 -197 0 2 -10 211 -218zm210 228c0,-18 4,-44 10,-79l-1 0c-15,28 -30,49 -47,63 -16,15 -34,22 -53,22 -22,0 -39,-7 -51,-23 -12,-15 -18,-37 -18,-65 0,-33 7,-62 20,-88 13,-27 31,-47 54,-62 23,-15 49,-22 76,-22 21,0 47,3 76,9l-32 156c-3,13 -5,28 -8,46 -2,19 -3,33 -3,43l-23 0zm40 -228c-17,-4 -34,-6 -52,-6 -23,0 -44,7 -63,19 -19,13 -34,30 -45,53 -11,23 -16,49 -16,77 0,47 16,71 49,71 13,0 27,-6 43,-19 15,-13 29,-31 42,-54 13,-22 22,-46 27,-70l15 -71zm39 304c23,13 45,20 67,20 29,0 53,-8 69,-25 17,-16 30,-42 38,-79l16 -70 -1 0c-16,30 -33,51 -48,65 -16,13 -33,19 -51,19 -22,0 -39,-7 -51,-23 -12,-15 -18,-37 -18,-66 0,-32 7,-61 20,-87 13,-27 32,-47 55,-62 23,-15 48,-22 76,-22 8,0 20,1 35,2 16,2 29,4 40,7l-49 228c-10,48 -26,82 -47,103 -22,21 -51,31 -88,31 -24,0 -46,-5 -67,-17l4 -24zm221 -304c-16,-4 -34,-6 -53,-6 -22,0 -43,7 -62,19 -20,13 -35,31 -45,53 -11,22 -16,47 -16,75 0,49 16,73 48,73 14,0 29,-7 45,-20 15,-13 29,-31 42,-53 13,-23 21,-46 26,-70l15 -71zm84 133c0,25 6,45 19,59 13,15 32,22 55,22 21,0 44,-7 68,-20l-4 23c-21,12 -44,17 -67,17 -30,0 -53,-9 -70,-27 -16,-18 -25,-44 -25,-76 0,-29 6,-56 18,-80 12,-24 29,-43 49,-56 20,-14 42,-21 65,-21 21,0 38,5 51,16 13,11 20,25 20,44 0,28 -14,49 -43,62 -28,13 -73,21 -136,22l0 15zm3 -36c52,0 90,-5 115,-14 25,-10 37,-25 37,-47 0,-28 -17,-42 -51,-42 -24,0 -45,10 -64,29 -18,19 -31,44 -37,74zm249 -117l22 0 -12 71 1 0c32,-52 65,-77 99,-77 20,0 34,6 43,18 8,12 13,31 13,59 15,-25 31,-44 49,-57 17,-14 35,-20 52,-20 37,0 55,22 55,66 0,11 -2,27 -6,49l-30 139 -22 0 29 -142c4,-23 7,-38 7,-46 0,-30 -13,-46 -38,-46 -13,0 -27,6 -42,18 -15,12 -29,27 -42,46 -12,19 -20,37 -24,54l-24 116 -23 0 29 -142c5,-21 7,-35 7,-42 0,-16 -3,-28 -8,-37 -6,-8 -16,-13 -29,-13 -14,0 -28,7 -44,19 -16,13 -29,28 -41,47 -12,18 -20,36 -23,53l-25 115 -23 0 39 -179c5,-27 9,-51 11,-69zm579 -100l20 0 78 193c4,11 8,21 10,31l1 0 21 -26 171 -198 24 0 -75 348 -22 0 56 -265 10 -42 -1 0c-6,9 -11,16 -16,22l-170 194 -8 0 -78 -193c-3,-7 -6,-15 -7,-23l-1 0c-1,6 -2,13 -3,23 -2,10 -22,105 -60,284l-24 0 74 -348zm387 100l22 0 -29 143c-4,21 -7,35 -7,41 0,33 15,50 43,50 14,0 29,-6 45,-18 16,-12 31,-28 44,-47 13,-19 21,-37 24,-53l25 -116 22 0 -38 179c-6,28 -9,51 -11,69l-22 0 12 -70 -1 0c-32,51 -67,76 -104,76 -41,0 -62,-22 -62,-68 0,-3 1,-9 2,-16 1,-8 12,-65 35,-170zm215 214c8,6 17,11 28,14 11,4 21,6 31,6 19,0 34,-4 44,-12 11,-8 16,-20 16,-35 0,-11 -3,-19 -9,-27 -6,-7 -16,-16 -32,-25 -19,-12 -32,-23 -40,-33 -7,-10 -11,-22 -11,-36 0,-20 8,-38 23,-51 15,-14 35,-21 58,-21 9,0 19,1 30,3 11,2 21,6 28,9l-5 24c-16,-11 -34,-16 -55,-16 -16,0 -29,5 -40,14 -11,9 -16,21 -16,35 0,12 3,21 9,29 6,7 16,15 32,25 19,11 32,21 39,32 8,10 12,22 12,35 0,22 -7,39 -23,51 -15,13 -35,19 -61,19 -24,0 -45,-5 -63,-17l5 -23zm245 -214l23 0 -38 176c-3,20 -5,34 -5,42 0,10 5,15 15,15 7,0 13,-1 20,-4l-4 19c-8,4 -16,5 -24,5 -20,0 -30,-11 -30,-33 0,-7 0,-15 2,-22 1,-8 15,-74 41,-198zm29 -63c-5,0 -10,-2 -13,-5 -4,-4 -6,-8 -6,-14 0,-5 2,-9 6,-13 3,-3 8,-5 13,-5 5,0 9,2 13,5 4,3 6,8 6,13 0,5 -2,10 -6,14 -4,3 -8,5 -13,5zm117 317c-26,0 -47,-8 -63,-26 -15,-17 -23,-42 -23,-72 0,-30 6,-58 17,-83 12,-25 28,-44 48,-58 21,-14 43,-21 67,-21 11,0 22,1 31,4 9,2 18,7 27,13l-6 25c-14,-15 -32,-22 -54,-22 -20,0 -38,6 -54,19 -17,12 -30,29 -40,51 -9,21 -14,45 -14,71 0,24 6,44 18,58 12,14 28,21 49,21 11,0 21,-2 31,-6 9,-5 20,-11 32,-20l-6 28c-12,7 -23,12 -31,14 -9,3 -19,4 -29,4zm277 -6c1,-18 4,-44 10,-79l-1 0c-15,28 -30,49 -46,63 -17,15 -34,22 -54,22 -22,0 -39,-7 -51,-23 -12,-15 -18,-37 -18,-65 0,-33 7,-62 20,-88 13,-27 31,-47 54,-62 23,-15 49,-22 76,-22 22,0 47,3 76,9l-32 156c-3,13 -5,28 -7,46 -3,19 -4,33 -4,43l-23 0zm40 -228c-17,-4 -34,-6 -52,-6 -23,0 -44,7 -63,19 -19,13 -34,30 -45,53 -11,23 -16,49 -16,77 0,47 16,71 49,71 14,0 28,-6 43,-19 15,-13 29,-31 42,-54 13,-22 22,-46 27,-70l15 -71zm130 -140l23 0 -63 296c-4,20 -6,34 -6,42 0,10 5,15 15,15 7,0 14,-1 21,-4l-4 19c-8,4 -16,5 -24,5 -21,0 -31,-11 -31,-33 0,-7 1,-16 3,-28 2,-11 24,-115 66,-312z"/>
   <path class="fil6 str0" d="M17663 12094l-74 0 46 -209c5,-22 12,-47 20,-74l-2 0c-2,5 -5,10 -7,15 -3,5 -6,10 -8,15 -3,4 -5,9 -7,12 -2,4 -4,7 -6,9l-98 127 -57 0 -38 -124c-1,-3 -2,-7 -2,-12 -1,-5 -2,-11 -2,-16l0 -26 -2 0c-2,15 -5,29 -7,42 -2,12 -4,23 -6,32l-47 209 -74 0 78 -349 98 0 37 121c1,4 2,8 3,13 1,4 2,9 3,13 0,5 1,9 1,13 1,4 1,8 1,11l1 0c2,-4 4,-8 6,-12 2,-4 4,-9 7,-14 2,-4 4,-9 7,-13 2,-4 5,-8 8,-11l93 -121 105 0 -77 349zm336 -83c-2,5 -3,12 -4,19 -1,7 -2,14 -3,22 -1,8 -2,15 -2,22 -1,8 -1,14 -1,20l-81 0c0,-3 0,-6 0,-10 0,-4 0,-8 1,-11 0,-4 0,-8 1,-12 0,-4 1,-7 1,-10l-1 0c-5,7 -10,13 -15,18 -5,6 -11,11 -18,16 -6,4 -13,8 -21,11 -8,2 -17,4 -28,4 -12,0 -24,-3 -34,-7 -9,-4 -18,-11 -25,-19 -6,-8 -12,-18 -15,-30 -4,-12 -5,-25 -5,-41 0,-7 0,-17 2,-28 2,-11 5,-22 10,-35 5,-12 11,-24 19,-36 9,-12 19,-23 32,-33 13,-9 29,-17 47,-23 19,-6 40,-9 65,-9 10,0 20,0 29,1 10,1 20,2 29,3 10,1 19,2 27,4 9,2 17,3 25,5l-35 159zm-55 -116c-4,-1 -8,-1 -13,-2 -5,0 -9,0 -14,0 -11,0 -22,2 -30,5 -9,4 -17,9 -23,15 -7,6 -12,13 -17,20 -4,8 -8,16 -10,23 -3,8 -5,16 -6,23 -1,8 -2,14 -2,20 0,6 1,12 2,17 2,5 4,9 6,13 3,4 6,7 10,9 4,2 9,3 14,3 10,0 18,-3 26,-8 8,-6 14,-12 20,-21 6,-8 10,-17 14,-28 4,-10 7,-21 9,-31l14 -58zm309 21l0 0c-4,-2 -9,-4 -14,-5 -5,-2 -11,-2 -15,-2 -10,0 -19,2 -27,6 -8,4 -15,10 -21,17 -7,8 -12,16 -16,26 -4,10 -7,20 -10,31l-23 105 -81 0 35 -159c2,-8 4,-16 5,-24 2,-8 4,-16 5,-23 1,-8 3,-16 4,-23 1,-7 2,-14 2,-20l80 0c0,5 -1,9 -2,14 0,5 -1,10 -1,15 -1,5 -2,9 -2,12 -1,4 -1,7 -2,9l1 0c11,-18 22,-33 34,-42 11,-9 25,-14 40,-14 4,0 9,0 13,1 4,1 8,2 11,2l-16 74zm218 -3c-6,-4 -13,-8 -22,-11 -9,-3 -19,-4 -30,-4 -12,0 -23,2 -34,8 -9,5 -18,12 -25,21 -7,9 -12,19 -16,30 -4,10 -6,21 -6,32 0,16 5,29 13,38 8,9 20,14 36,14 5,0 11,-1 16,-2 6,-1 11,-2 17,-4 5,-1 10,-3 15,-5 5,-2 10,-5 14,-7l-13 59c-11,5 -23,10 -36,13 -14,3 -27,5 -40,5 -17,0 -31,-3 -44,-8 -13,-5 -24,-12 -32,-21 -9,-9 -16,-20 -20,-33 -4,-12 -6,-26 -6,-41 0,-14 1,-27 5,-41 3,-13 8,-25 14,-37 6,-11 14,-22 23,-32 9,-10 20,-18 32,-26 12,-7 25,-12 40,-16 14,-4 30,-6 47,-6 7,0 15,0 22,1 7,1 13,2 19,4 6,1 11,2 15,4 4,2 8,3 11,5l-15 60zm279 98c-2,7 -3,15 -4,23 -2,8 -3,15 -4,22 -1,8 -2,14 -3,21 0,6 -1,12 -1,17l-81 0c0,-5 1,-10 1,-15 1,-5 1,-9 2,-13 1,-5 1,-9 2,-12 0,-3 1,-6 1,-7l-1 0c-7,8 -14,15 -21,21 -8,7 -16,12 -24,17 -8,5 -17,8 -25,11 -9,2 -18,4 -27,4 -22,0 -38,-6 -49,-17 -11,-12 -17,-28 -17,-49 0,-2 1,-5 1,-9 1,-4 1,-9 2,-13 1,-4 2,-9 2,-13 1,-4 2,-7 2,-10l32 -144 81 0 -31 140c-1,3 -1,6 -2,8 -1,3 -1,6 -2,9 0,3 0,5 -1,7 0,3 0,5 0,6 0,7 2,13 6,17 4,4 10,6 18,6 8,0 17,-2 25,-6 8,-5 15,-11 21,-18 7,-7 12,-16 17,-25 5,-9 8,-18 10,-27l26 -117 81 0 -37 166zm252 -104c-4,-2 -8,-4 -13,-5 -4,-2 -9,-4 -15,-5 -5,-2 -11,-3 -16,-4 -6,-1 -11,-1 -16,-1 -13,0 -22,2 -27,7 -5,4 -8,10 -8,16 0,7 3,12 8,16 5,5 12,9 21,13 10,5 19,9 26,14 8,5 14,10 20,16 5,5 8,12 11,19 2,7 4,15 4,24 0,10 -2,20 -7,30 -4,10 -11,18 -20,26 -10,8 -22,14 -38,19 -15,5 -34,8 -57,8 -6,0 -13,-1 -20,-1 -8,-1 -15,-2 -22,-3 -7,-1 -14,-3 -20,-4 -7,-2 -13,-4 -18,-6l12 -58c4,2 10,5 15,7 6,2 12,4 19,6 6,2 13,3 20,5 7,1 14,1 21,1 12,0 22,-2 28,-6 6,-4 9,-10 9,-17 0,-6 -2,-12 -7,-16 -5,-5 -13,-10 -25,-15 -9,-4 -18,-9 -25,-14 -7,-4 -14,-9 -19,-15 -5,-6 -9,-12 -11,-19 -3,-7 -4,-15 -4,-24 0,-9 2,-18 6,-28 4,-10 10,-19 19,-27 8,-8 20,-14 35,-20 14,-5 32,-7 53,-7 7,0 13,0 20,1 7,0 13,1 20,2 6,1 12,2 18,3 6,2 11,3 15,4l-12 58zm499 -63c0,18 -3,34 -10,50 -6,15 -16,29 -29,41 -13,12 -30,21 -50,28 -21,7 -45,11 -73,11l-51 0 -27 120 -83 0 78 -349 125 0c21,0 39,3 54,8 15,5 27,12 37,21 10,9 17,19 22,31 4,12 7,25 7,39zm-87 6c0,-14 -5,-24 -14,-32 -10,-8 -24,-12 -42,-12l-33 0 -24 108 38 0c13,0 24,-2 33,-5 10,-4 18,-8 24,-14 6,-6 10,-13 13,-21 3,-7 5,-16 5,-24zm341 93c0,12 -1,24 -3,36 -3,12 -6,24 -11,35 -6,12 -12,23 -20,33 -8,11 -18,20 -29,27 -12,8 -25,14 -40,19 -15,4 -32,7 -51,7 -20,0 -36,-3 -51,-8 -14,-6 -26,-13 -35,-23 -10,-9 -17,-20 -21,-33 -5,-13 -7,-27 -7,-42 0,-12 1,-24 4,-36 2,-12 6,-24 12,-36 5,-11 12,-22 20,-32 8,-10 18,-19 30,-27 11,-7 25,-13 39,-18 15,-4 32,-6 50,-6 19,0 35,2 49,7 14,5 25,12 35,21 9,9 17,21 22,33 5,13 7,28 7,43zm-81 1c0,-6 -1,-13 -2,-18 -2,-6 -5,-11 -8,-15 -3,-4 -7,-8 -12,-10 -5,-2 -10,-3 -16,-3 -11,0 -21,3 -29,8 -9,6 -16,14 -21,23 -6,9 -11,19 -14,31 -3,11 -4,23 -4,34 0,15 3,27 11,35 7,8 16,12 28,12 11,0 20,-3 29,-9 8,-5 15,-13 21,-22 6,-9 10,-19 13,-31 3,-11 4,-23 4,-35zm364 67c-1,7 -3,15 -4,23 -1,8 -3,15 -4,22 -1,8 -1,14 -2,21 -1,6 -1,12 -2,17l-81 0c1,-5 1,-10 2,-15 0,-5 1,-9 2,-13 0,-5 1,-9 1,-12 1,-3 1,-6 1,-7l-1 0c-6,8 -13,15 -21,21 -7,7 -15,12 -24,17 -8,5 -16,8 -25,11 -9,2 -18,4 -27,4 -21,0 -37,-6 -49,-17 -11,-12 -16,-28 -16,-49 0,-2 0,-5 1,-9 0,-4 1,-9 1,-13 1,-4 2,-9 3,-13 1,-4 1,-7 2,-10l32 -144 81 0 -32 140c0,3 -1,6 -2,8 0,3 -1,6 -1,9 0,3 -1,5 -1,7 0,3 -1,5 -1,6 0,7 3,13 7,17 4,4 10,6 17,6 9,0 17,-2 25,-6 8,-5 15,-11 22,-18 6,-7 12,-16 16,-25 5,-9 8,-18 10,-27l27 -117 81 0 -38 166zm256 -95l-1 0c-3,-2 -8,-4 -13,-5 -6,-2 -11,-2 -16,-2 -10,0 -19,2 -27,6 -8,4 -15,10 -21,17 -6,8 -11,16 -15,26 -4,10 -8,20 -10,31l-23 105 -81 0 35 -159c2,-8 4,-16 5,-24 2,-8 3,-16 5,-23 1,-8 2,-16 4,-23 1,-7 2,-14 2,-20l80 0c-1,5 -1,9 -2,14 0,5 -1,10 -2,15 0,5 -1,9 -1,12 -1,4 -1,7 -2,9l1 0c11,-18 22,-33 33,-42 12,-9 25,-14 41,-14 4,0 8,0 13,1 4,1 8,2 11,2l-16 74zm208 0l0 0c-4,-2 -9,-4 -14,-5 -5,-2 -11,-2 -15,-2 -10,0 -19,2 -27,6 -8,4 -15,10 -21,17 -7,8 -12,16 -16,26 -4,10 -7,20 -10,31l-23 105 -81 0 35 -159c2,-8 4,-16 5,-24 2,-8 4,-16 5,-23 1,-8 3,-16 4,-23 1,-7 2,-14 2,-20l80 0c0,5 -1,9 -2,14 0,5 -1,10 -1,15 -1,5 -2,9 -2,12 -1,4 -1,7 -2,9l1 0c11,-18 22,-33 34,-42 11,-9 25,-14 40,-14 4,0 9,0 13,1 4,1 8,2 11,2l-16 74zm273 27c0,12 -1,24 -4,36 -2,12 -6,24 -11,35 -5,12 -12,23 -20,33 -8,11 -17,20 -29,27 -11,8 -24,14 -39,19 -15,4 -33,7 -52,7 -19,0 -36,-3 -50,-8 -15,-6 -26,-13 -36,-23 -9,-9 -16,-20 -21,-33 -4,-13 -6,-27 -6,-42 0,-12 1,-24 3,-36 3,-12 7,-24 12,-36 6,-11 12,-22 21,-32 8,-10 18,-19 30,-27 11,-7 24,-13 39,-18 15,-4 32,-6 50,-6 18,0 34,2 48,7 14,5 26,12 35,21 10,9 17,21 22,33 5,13 8,28 8,43zm-81 1c0,-6 -1,-13 -3,-18 -1,-6 -4,-11 -7,-15 -4,-4 -8,-8 -12,-10 -5,-2 -11,-3 -17,-3 -11,0 -20,3 -29,8 -8,6 -15,14 -21,23 -5,9 -10,19 -13,31 -3,11 -5,23 -5,34 0,15 4,27 11,35 7,8 17,12 28,12 11,0 21,-3 29,-9 9,-5 16,-13 22,-22 5,-9 10,-19 12,-31 3,-11 5,-23 5,-35zm230 171c-9,15 -18,28 -27,40 -9,11 -19,21 -30,30 -11,8 -23,14 -36,19 -13,4 -28,6 -45,6 -5,0 -12,0 -20,-1 -8,-1 -16,-3 -23,-6l14 -59c3,3 8,5 13,6 5,1 11,2 16,2 10,0 19,-2 28,-7 8,-4 16,-12 22,-22l21 -31 -50 -247 84 0 18 151c1,6 1,12 1,18 1,6 0,11 0,15l1 0c1,-4 3,-9 6,-15 2,-6 5,-12 8,-18l80 -151 84 0 -165 270z"/>
  </g>
  <rect class="fil2" x="-128" y="4916" width="29700" height="692"/>
  <rect class="fil2" x="-128" y="13603" width="29700" height="692"/>
 </g>
</svg>
